<svg xmlns="http://www.w3.org/2000/svg" xmlns:xlink="http://www.w3.org/1999/xlink" width="367.265" height="387.111" viewBox="0 0 367.265 387.111"><defs><style>.a{fill:none;}.b{clip-path:url(#a);}.c{fill:#fff;}</style><clipPath id="a"><path class="a" d="M2416.551,2492.833c-50.284-13.108-86.576,13.454-115.9,51.726-16.356,21.346-29.755,44.958-48,64.758-16.975,18.419-39.858,30.361-61.468,42.386-28.316,15.757-57.93,34.606-69.782,64.766-17.112,43.547,12.208,93.363,54.044,109.244,34.5,13.094,70.991,18.271,104.742,33.648,33.03,15.049,68.447,23.047,104.216,12.153,61.247-18.655,80.358-73.611,76.908-132.381-2.3-39.241,3.463-68.161,14.752-105.261,10.894-35.8,12.181-74.219-9.827-106.23A85.772,85.772,0,0,0,2416.551,2492.833Z" transform="translate(-2116.431 -2489.446)"/></clipPath></defs><g class="b" transform="translate(0 0)"><g transform="translate(-173.783 -120.348)"><rect class="c" width="581.881" height="1.112" transform="matrix(0.914, -0.405, 0.405, 0.914, 0, 235.876)"/><rect class="c" width="581.881" height="1.112" transform="translate(2.149 240.721) rotate(-23.915)"/><rect class="c" width="581.881" height="1.112" transform="translate(4.296 245.565) rotate(-23.915)"/><rect class="c" width="581.881" height="1.112" transform="translate(6.444 250.408) rotate(-23.915)"/><rect class="c" width="581.881" height="1.112" transform="translate(8.592 255.252) rotate(-23.915)"/><rect class="c" width="581.881" height="1.112" transform="translate(10.74 260.096) rotate(-23.915)"/><rect class="c" width="581.881" height="1.112" transform="translate(12.888 264.939) rotate(-23.915)"/><rect class="c" width="581.881" height="1.113" transform="translate(15.036 269.783) rotate(-23.915)"/><rect class="c" width="581.881" height="1.112" transform="matrix(0.914, -0.405, 0.405, 0.914, 17.184, 274.627)"/><rect class="c" width="581.881" height="1.112" transform="translate(19.331 279.47) rotate(-23.915)"/><rect class="c" width="581.881" height="1.113" transform="translate(21.479 284.314) rotate(-23.915)"/><rect class="c" width="581.881" height="1.112" transform="translate(23.627 289.157) rotate(-23.915)"/><rect class="c" width="581.881" height="1.113" transform="translate(25.775 294.001) rotate(-23.915)"/><rect class="c" width="581.881" height="1.112" transform="translate(27.923 298.845) rotate(-23.915)"/><rect class="c" width="581.881" height="1.113" transform="translate(30.071 303.688) rotate(-23.915)"/><rect class="c" width="581.881" height="1.112" transform="translate(32.219 308.532) rotate(-23.915)"/><rect class="c" width="581.881" height="1.112" transform="translate(34.367 313.375) rotate(-23.915)"/><rect class="c" width="581.881" height="1.112" transform="translate(36.514 318.219) rotate(-23.915)"/><rect class="c" width="581.881" height="1.112" transform="translate(38.662 323.063) rotate(-23.915)"/><rect class="c" width="581.881" height="1.112" transform="translate(40.81 327.907) rotate(-23.915)"/><rect class="c" width="581.881" height="1.112" transform="translate(42.958 332.75) rotate(-23.915)"/><rect class="c" width="581.881" height="1.112" transform="translate(45.106 337.594) rotate(-23.915)"/><rect class="c" width="581.881" height="1.113" transform="translate(47.254 342.437) rotate(-23.915)"/><rect class="c" width="581.881" height="1.112" transform="translate(49.402 347.281) rotate(-23.915)"/><rect class="c" width="581.881" height="1.113" transform="translate(51.549 352.124) rotate(-23.915)"/><rect class="c" width="581.881" height="1.112" transform="translate(53.697 356.968) rotate(-23.915)"/><rect class="c" width="581.881" height="1.112" transform="translate(55.845 361.812) rotate(-23.915)"/><rect class="c" width="581.881" height="1.113" transform="translate(57.993 366.655) rotate(-23.915)"/><rect class="c" width="581.881" height="1.112" transform="translate(60.141 371.499) rotate(-23.915)"/><rect class="c" width="581.881" height="1.112" transform="translate(62.289 376.343) rotate(-23.915)"/><rect class="c" width="581.881" height="1.112" transform="translate(64.437 381.186) rotate(-23.915)"/><rect class="c" width="581.881" height="1.112" transform="translate(66.584 386.03) rotate(-23.915)"/><rect class="c" width="581.881" height="1.112" transform="translate(68.732 390.874) rotate(-23.915)"/><rect class="c" width="581.881" height="1.112" transform="translate(70.88 395.717) rotate(-23.915)"/><rect class="c" width="581.881" height="1.112" transform="translate(73.028 400.561) rotate(-23.915)"/><rect class="c" width="581.881" height="1.113" transform="translate(75.176 405.404) rotate(-23.915)"/><rect class="c" width="581.881" height="1.112" transform="translate(77.324 410.248) rotate(-23.915)"/><rect class="c" width="581.881" height="1.113" transform="translate(79.472 415.091) rotate(-23.915)"/><rect class="c" width="581.881" height="1.112" transform="translate(81.62 419.935) rotate(-23.915)"/><rect class="c" width="581.881" height="1.113" transform="translate(83.767 424.779) rotate(-23.915)"/><rect class="c" width="581.881" height="1.112" transform="translate(85.915 429.622) rotate(-23.915)"/><rect class="c" width="581.881" height="1.113" transform="translate(88.063 434.466) rotate(-23.915)"/><rect class="c" width="581.881" height="1.113" transform="translate(90.211 439.31) rotate(-23.915)"/><rect class="c" width="581.881" height="1.112" transform="translate(92.359 444.153) rotate(-23.915)"/><rect class="c" width="581.881" height="1.112" transform="translate(94.507 448.997) rotate(-23.915)"/><rect class="c" width="581.881" height="1.112" transform="translate(96.655 453.84) rotate(-23.915)"/><rect class="c" width="581.881" height="1.112" transform="translate(98.803 458.684) rotate(-23.915)"/><rect class="c" width="581.881" height="1.112" transform="translate(100.95 463.528) rotate(-23.915)"/><rect class="c" width="581.881" height="1.112" transform="translate(103.098 468.371) rotate(-23.915)"/><rect class="c" width="581.881" height="1.112" transform="translate(105.246 473.215) rotate(-23.915)"/><rect class="c" width="581.881" height="1.113" transform="translate(107.394 478.058) rotate(-23.915)"/><rect class="c" width="581.881" height="1.112" transform="translate(109.542 482.902) rotate(-23.915)"/><rect class="c" width="581.881" height="1.113" transform="translate(111.69 487.746) rotate(-23.915)"/><rect class="c" width="581.881" height="1.112" transform="translate(113.838 492.589) rotate(-23.915)"/><rect class="c" width="581.881" height="1.113" transform="translate(115.985 497.433) rotate(-23.915)"/><rect class="c" width="581.881" height="1.112" transform="translate(118.133 502.277) rotate(-23.915)"/><rect class="c" width="581.881" height="1.113" transform="translate(120.281 507.12) rotate(-23.915)"/><rect class="c" width="581.881" height="1.112" transform="translate(122.429 511.964) rotate(-23.915)"/><rect class="c" width="581.881" height="1.112" transform="translate(124.577 516.807) rotate(-23.915)"/><rect class="c" width="581.881" height="1.112" transform="translate(126.725 521.651) rotate(-23.915)"/><rect class="c" width="581.881" height="1.112" transform="translate(128.873 526.495) rotate(-23.915)"/><rect class="c" width="581.881" height="1.112" transform="translate(131.021 531.339) rotate(-23.915)"/><rect class="c" width="581.881" height="1.112" transform="translate(133.168 536.182) rotate(-23.915)"/><rect class="c" width="581.881" height="1.113" transform="translate(135.316 541.026) rotate(-23.915)"/><rect class="c" width="581.881" height="1.112" transform="translate(137.464 545.869) rotate(-23.915)"/><rect class="c" width="581.881" height="1.113" transform="translate(139.612 550.713) rotate(-23.915)"/><rect class="c" width="581.881" height="1.112" transform="translate(141.76 555.556) rotate(-23.915)"/><rect class="c" width="581.881" height="1.113" transform="translate(143.908 560.4) rotate(-23.915)"/><rect class="c" width="581.881" height="1.112" transform="translate(146.056 565.244) rotate(-23.915)"/><rect class="c" width="581.881" height="1.113" transform="translate(148.204 570.087) rotate(-23.915)"/><rect class="c" width="581.881" height="1.112" transform="translate(150.351 574.931) rotate(-23.915)"/><rect class="c" width="581.881" height="1.113" transform="translate(152.499 579.775) rotate(-23.915)"/><rect class="c" width="581.881" height="1.112" transform="translate(154.647 584.618) rotate(-23.915)"/><rect class="c" width="581.881" height="1.112" transform="translate(156.795 589.462) rotate(-23.915)"/><rect class="c" width="581.881" height="1.112" transform="translate(158.943 594.305) rotate(-23.915)"/><rect class="c" width="581.881" height="1.112" transform="translate(161.091 599.149) rotate(-23.915)"/><rect class="c" width="581.881" height="1.112" transform="translate(163.239 603.993) rotate(-23.915)"/><rect class="c" width="581.881" height="1.112" transform="translate(165.387 608.836) rotate(-23.915)"/><rect class="c" width="581.881" height="1.112" transform="translate(167.534 613.68) rotate(-23.915)"/><rect class="c" width="581.881" height="1.112" transform="translate(169.682 618.523) rotate(-23.915)"/><rect class="c" width="581.881" height="1.113" transform="translate(171.83 623.367) rotate(-23.915)"/><rect class="c" width="581.881" height="1.112" transform="translate(173.978 628.211) rotate(-23.915)"/><rect class="c" width="581.881" height="1.113" transform="translate(176.126 633.054) rotate(-23.915)"/><rect class="c" width="581.881" height="1.112" transform="translate(178.274 637.898) rotate(-23.915)"/><rect class="c" width="581.881" height="1.112" transform="translate(180.422 642.742) rotate(-23.915)"/></g></g></svg>