<svg xmlns="http://www.w3.org/2000/svg" width="250.354" height="319.912" viewBox="0 0 250.354 319.912"><defs><style>.a{fill:#c50000;}</style></defs><path class="a" d="M1988.681,2886.787c-9.488-10.432-13.8-22.149-15.08-34.442a64.736,64.736,0,0,1-.1-12.689,66.729,66.729,0,0,1,2.625-13.03,135.812,135.812,0,0,1,4.815-13.232c1.589-3.812,3.114-7.573,4.523-11.315,1.421-3.773,2.7-7.525,3.781-11.289a94.782,94.782,0,0,0,2.578-11.46,75.862,75.862,0,0,0,.94-11.856,85.031,85.031,0,0,0-.952-12.5,122.73,122.73,0,0,0-2.807-13.432c-1.581-5.975-3.314-12.192-4.929-18.552a185.828,185.828,0,0,1-4-19.685,96.545,96.545,0,0,1-.841-20.187,100.737,100.737,0,0,1,3.385-19.912c17.84-64.3,91.445-83.189,146.329-60.541,49.473,20.415,82.015,69.581,91.432,119.264,8.232,43.435.695,88.412-23.148,122.91-30.308,43.852-81.083,65.265-131.831,68.337C2037.905,2914.837,2007,2906.927,1988.681,2886.787Z" transform="translate(-1973.236 -2593.476)"/></svg>