<svg xmlns="http://www.w3.org/2000/svg" width="36" height="36" viewBox="0 0 36 36"><defs><style>.a{fill:#2c2c2c;}.b{fill:#fff;}</style></defs><circle class="a" cx="18" cy="18" r="18"/><path class="b" d="M17.222,3A1.778,1.778,0,0,1,19,4.778V17.222A1.778,1.778,0,0,1,17.222,19H4.778A1.778,1.778,0,0,1,3,17.222V4.778A1.778,1.778,0,0,1,4.778,3H17.222m-.444,13.778V12.067a2.9,2.9,0,0,0-2.9-2.9,2.576,2.576,0,0,0-2.062,1.156V9.338H9.338v7.44h2.48V12.4a1.24,1.24,0,1,1,2.48,0v4.382h2.48M6.449,7.942a1.5,1.5,0,1,0-1.5-1.493,1.493,1.493,0,0,0,1.5,1.493m1.236,8.836V9.338H5.222v7.44Z" transform="translate(7 7)"/></svg>